#!OML:ASF I:\golf\golf\golf 2\Subject 1\2002-09-07\Subject1.ASF
:FULLY-SPECIFIED
:DEGREES
272
root 1.6657 16.1093 -1.93401 56.9707 11.8 5.46099
lowerback 34.4351 3.84427 2.72494
upperback 22.2787 5.6795 14.2013
thorax 5.6382 1.87469 12.4073
lowerneck -23.9207 -11.8091 -24.0936
upperneck 5.38586 -7.84859 -4.23302
head 6.03125 -4.74576 1.06347
rclavicle -1.31993e-013 -7.23576e-014
rhumerus 72.5625 -10.7236 -50.9013
rradius 22.6204
rwrist -0.712344
rhand -47.6396 25.3089
rfingers 7.12502
rthumb -20.3221 -3.64785
lclavicle -1.31993e-013 -7.23576e-014
lhumerus -6.92211 -40.183 91.0734
lradius 95.8471
lwrist -14.6014
lhand -46.0157 19.2444
lfingers 7.12502
lthumb -18.7607 48.3597
rfemur -95.5582 -22.8196 32.8366
rtibia 63.7354
rfoot -20.1048 -2.68683
rtoes -7.11134
lfemur -95.4609 -3.87161 -30.9699
ltibia 50.6115
lfoot -4.5912 -23.2515
ltoes 10.507
273
root 1.66557 16.1067 -1.93817 57.1112 11.8601 5.49106
lowerback 34.2052 3.798 2.77763
upperback 22.2727 5.62388 14.214
thorax 5.72989 1.85156 12.4239
lowerneck -23.9653 -11.8033 -24.1253
upperneck 5.32953 -7.82661 -4.20283
head 6.01775 -4.7293 1.0805
rclavicle -3.18055e-015 2.38542e-014
rhumerus 72.846 -10.7534 -51.261
rradius 22.292
rwrist -0.148847
rhand -47.544 24.9948
rfingers 7.12502
rthumb -20.2302 -3.97172
lclavicle -3.18055e-015 2.38542e-014
lhumerus -6.88163 -40.2722 91.0394
lradius 94.9537
lwrist -17.6437
lhand -48.8375 22.6454
lfingers 7.12502
lthumb -21.4729 51.4753
rfemur -95.6768 -22.7977 32.8569
rtibia 63.6559
rfoot -20.0271 -2.66961
rtoes -6.89832
lfemur -95.5623 -3.94747 -30.9403
ltibia 50.4883
lfoot -4.42101 -23.2774
ltoes 10.5458
274
root 1.66144 16.1133 -1.93744 57.135 11.8822 5.50975
lowerback 34.0937 3.8003 2.79404
upperback 22.3044 5.62096 14.2347
thorax 5.80651 1.84851 12.4495
lowerneck -24.1079 -11.8391 -24.1791
upperneck 5.29333 -7.81919 -4.17449
head 6.02619 -4.7233 1.09218
rclavicle -8.42847e-014 -1.13705e-013
rhumerus 73.1521 -10.8786 -51.5972
rradius 21.9772
rwrist 0.397116
rhand -47.1972 24.4204
rfingers 7.12502
rthumb -19.8968 -4.58106
lclavicle -8.42847e-014 -1.13705e-013
lhumerus -6.55508 -40.2579 90.9157
lradius 95.1202
lwrist -16.3736
lhand -47.9101 21.066
lfingers 7.12502
lthumb -20.582 49.9948
rfemur -95.6162 -22.7451 32.7695
rtibia 63.6176
rfoot -20.0186 -2.74648
rtoes -6.99655
lfemur -95.5189 -3.95075 -30.9505
ltibia 50.3836
lfoot -4.46317 -23.2993
ltoes 10.0568
275
root 1.65643 16.1257 -1.93656 57.0696 11.8713 5.50181
lowerback 34.05 3.86878 2.77832
upperback 22.3511 5.6928 14.3073
thorax 5.84942 1.87475 12.5254
lowerneck -24.1563 -11.9188 -24.2781
upperneck 5.21742 -7.88457 -4.18647
head 6.01318 -4.75186 1.08998
rclavicle 1.90833e-014 -1.35174e-014
rhumerus 73.3482 -11.0706 -51.7567
rradius 21.7107
rwrist 0.821272
rhand -46.7009 23.9817
rfingers 7.12502
rthumb -19.4197 -5.06859
lclavicle 1.90833e-014 -1.35174e-014
lhumerus -6.28971 -40.3782 90.907
lradius 94.8455
lwrist -16.5256
lhand -48.5162 21.0003
lfingers 7.12502
lthumb -21.1643 49.8651
rfemur -95.4555 -22.7009 32.6848
rtibia 63.5556
rfoot -20.0021 -2.83135
rtoes -7.25133
lfemur -95.3754 -3.90408 -30.9646
ltibia 50.2701
lfoot -4.46255 -23.299
ltoes 9.87565
276
root 1.65504 16.1238 -1.94354 57.1902 11.8795 5.54003
lowerback 33.7853 3.90086 2.77878
upperback 22.3431 5.71628 14.3772
thorax 5.92177 1.88254 12.6123
lowerneck -23.9636 -11.9756 -24.3641
upperneck 4.95732 -8.02122 -4.19908
head 5.90753 -4.79626 1.09258
rclavicle -6.83819e-014 -7.95139e-014
rhumerus 73.4361 -11.1871 -51.8289
rradius 21.5089
rwrist 1.13057
rhand -46.1724 23.5218
rfingers 7.12502
rthumb -18.9115 -5.57883
lclavicle -6.83819e-014 -7.95139e-014
lhumerus -6.15802 -40.4745 91.0026
lradius 94.6183
lwrist -16.5943
lhand -48.9334 20.7611
lfingers 7.12502
lthumb -21.5651 49.5804
rfemur -95.5982 -22.6919 32.7007
rtibia 63.5018
rfoot -19.9468 -2.78009
rtoes -6.829
lfemur -95.4623 -3.99108 -30.9197
ltibia 50.1417
lfoot -4.34559 -23.2225
ltoes 9.81787
277
root 1.65579 16.1143 -1.95326 57.4029 12.0079 5.57694
lowerback 33.3871 3.8148 2.85752
upperback 22.2868 5.6159 14.4386
thorax 6.02479 1.83875 12.6895
lowerneck -23.7696 -11.9566 -24.4756
upperneck 4.7645 -8.04031 -4.21413
head 5.81793 -4.78914 1.11283
rclavicle -3.33958e-014 -6.44062e-014
rhumerus 73.5614 -11.1162 -52.0591
rradius 21.3201
rwrist 1.58761
rhand -45.671 22.9487
rfingers 7.12502
rthumb -18.4292 -6.19835
lclavicle -3.33958e-014 -6.44062e-014
lhumerus -6.07752 -40.3887 91.1168
lradius 94.4884
lwrist -16.3201
lhand -48.8148 20.4114
lfingers 7.12502
lthumb -21.4512 49.2437
rfemur -95.8645 -22.7086 32.8499
rtibia 63.4174
rfoot -19.8517 -2.73366
rtoes -6.17933
lfemur -95.6629 -4.17822 -30.7117
ltibia 49.9766
lfoot -4.15075 -23.1321
ltoes 9.80221
278
root 1.64937 16.1337 -1.95434 57.1737 12.0114 5.49284
lowerback 33.6287 3.83362 2.9525
upperback 22.3229 5.66905 14.4244
thorax 5.98049 1.87196 12.5938
lowerneck -24.0942 -12.0221 -24.5066
upperneck 4.84703 -8.01256 -4.14716
head 5.89154 -4.78261 1.12556
rclavicle -3.33958e-014 -4.69132e-014
rhumerus 73.7021 -11.2681 -52.5178
rradius 21.1435
rwrist 2.02526
rhand -45.3307 22.1601
rfingers 7.12502
rthumb -18.1018 -7.01753
lclavicle -3.33958e-014 -4.69132e-014
lhumerus -5.71106 -40.4782 90.8781
lradius 94.3479
lwrist -16.0501
lhand -48.7624 20.3351
lfingers 7.12502
lthumb -21.4008 49.1732
rfemur -95.4528 -22.6253 32.733
rtibia 63.2307
rfoot -19.8204 -2.77103
rtoes -5.70435
lfemur -95.3437 -4.06388 -30.6068
ltibia 49.7747
lfoot -4.0493 -23.1159
ltoes 10.0173
279
root 1.63784 16.1731 -1.95162 56.7148 11.8473 5.42007
lowerback 34.1071 3.96216 2.75812
upperback 22.3983 5.80243 14.4507
thorax 5.83715 1.91387 12.6661
lowerneck -24.185 -12.0363 -24.5934
upperneck 4.69373 -8.00055 -4.05631
head 5.85436 -4.75917 1.16917
rclavicle 1.28812e-013 1.44715e-013
rhumerus 73.7578 -11.3512 -52.8268
rradius 21.0406
rwrist 2.06177
rhand -45.1241 21.3206
rfingers 7.12502
rthumb -17.903 -7.87531
lclavicle 1.28812e-013 1.44715e-013
lhumerus -5.54363 -40.4742 90.8235
lradius 94.3258
lwrist -16.057
lhand -48.7228 20.3657
lfingers 7.12502
lthumb -21.3628 49.2081
rfemur -94.666 -22.4969 32.3367
rtibia 62.9586
rfoot -19.8079 -2.81881
rtoes -5.50233
lfemur -94.7083 -3.78341 -30.7443
ltibia 49.5549
lfoot -4.11617 -23.1301
ltoes 9.67956
280
root 1.62901 16.1983 -1.95293 56.4537 11.7655 5.41364
lowerback 34.3683 4.00612 2.6904
upperback 22.4063 5.85523 14.4461
thorax 5.73337 1.93449 12.6655
lowerneck -24.2809 -12.0591 -24.6391
upperneck 4.58485 -8.00814 -3.96022
head 5.83385 -4.74843 1.20523
rclavicle 2.70347e-014 -2.38542e-015
rhumerus 73.7935 -11.4698 -53.0688
rradius 20.9188
rwrist 1.57198
rhand -44.6714 20.9944
rfingers 7.12502
rthumb -17.4675 -8.24077
lclavicle 2.70347e-014 -2.38542e-015
lhumerus -5.48659 -40.4478 90.7983
lradius 94.4486
lwrist -16.594
lhand -48.8507 20.863
lfingers 7.12502
lthumb -21.4856 49.6915
rfemur -94.1735 -22.4362 32.0838
rtibia 62.6822
rfoot -19.7075 -2.85484
rtoes -5.62694
lfemur -94.309 -3.64359 -30.859
ltibia 49.3467
lfoot -4.16958 -23.1653
ltoes 8.88217
281
root 1.61682 16.2186 -1.95492 56.1472 11.5977 5.37056
lowerback 34.6063 4.12822 2.50888
upperback 22.4413 5.9666 14.44
thorax 5.64353 1.9726 12.71
lowerneck -24.3894 -12.1189 -24.7283
upperneck 4.59431 -8.04501 -3.76851
head 5.86366 -4.75624 1.26997
rclavicle -6.36111e-014 -6.99722e-014
rhumerus 74.0308 -11.6041 -54.1433
rradius 20.5994
rwrist 1.58829
rhand -43.9195 20.9066
rfingers 7.12502
rthumb -16.7437 -8.39136
lclavicle -6.36111e-014 -6.99722e-014
lhumerus -5.11988 -40.5023 90.6262
lradius 94.1899
lwrist -15.6186
lhand -47.9008 19.5606
lfingers 7.12502
lthumb -20.5731 48.4904
rfemur -93.6222 -22.2732 31.7177
rtibia 62.4333
rfoot -19.6101 -2.98287
rtoes -5.86181
lfemur -93.9133 -3.43048 -30.9657
ltibia 49.1633
lfoot -4.18335 -23.1772
ltoes 8.45681
282
root 1.60409 16.2407 -1.95962 55.8833 11.405 5.32961
lowerback 34.6678 4.2832 2.21547
upperback 22.492 6.07975 14.4682
thorax 5.61471 1.99861 12.8658
lowerneck -24.3644 -12.1207 -24.856
upperneck 4.58426 -8.03196 -3.60482
head 5.86553 -4.73856 1.34388
rclavicle -3.18055e-015 6.36111e-015
rhumerus 74.0658 -11.6712 -54.7572
rradius 20.4693
rwrist 1.40312
rhand -43.3179 19.9179
rfingers 7.12502
rthumb -16.1645 -9.42806
lclavicle -3.18055e-015 6.36111e-015
lhumerus -4.96375 -40.4135 90.6081
lradius 94.5028
lwrist -14.5197
lhand -46.6129 18.3214
lfingers 7.12502
lthumb -19.3351 47.3801
rfemur -93.1344 -22.0752 31.334
rtibia 62.217
rfoot -19.5223 -3.11764
rtoes -6.0566
lfemur -93.5576 -3.23342 -31.0357
ltibia 48.9881
lfoot -4.12592 -23.1084
ltoes 8.51567
283
root 1.59785 16.2503 -1.96852 55.8832 11.4963 5.34181
lowerback 34.6253 4.1671 2.51206
upperback 22.4312 6.00761 14.3515
thorax 5.63082 2.00273 12.592
lowerneck -24.7419 -12.192 -24.9115
upperneck 4.75237 -7.98492 -3.45476
head 5.97809 -4.7235 1.38627
rclavicle 9.38264e-014 1.26427e-013
rhumerus 74.0669 -11.8087 -55.3783
rradius 20.3439
rwrist 1.30906
rhand -43.1959 18.6316
rfingers 7.12502
rthumb -16.047 -10.7239
lclavicle 9.38264e-014 1.26427e-013
lhumerus -4.57092 -40.4404 90.2648
lradius 94.7294
lwrist -13.4772
lhand -45.4275 17.6812
lfingers 7.12502
lthumb -18.195 46.8502
rfemur -93.0595 -22.0755 31.3619
rtibia 62.035
rfoot -19.4215 -3.1797
rtoes -6.30221
lfemur -93.4843 -3.28738 -30.9362
ltibia 48.8038
lfoot -4.02745 -23.0847
ltoes 8.25047
284
root 1.58987 16.2611 -1.97707 55.7995 11.6051 5.33913
lowerback 34.4128 4.09973 2.53786
upperback 22.4261 5.92701 14.3827
thorax 5.71584 1.9643 12.6525
lowerneck -24.685 -12.1603 -25.0175
upperneck 4.58084 -7.9498 -3.38709
head 5.91269 -4.68712 1.43504
rclavicle -4.29375e-014 -2.78299e-014
rhumerus 74.0309 -11.6778 -55.8578
rradius 20.2008
rwrist 1.21188
rhand -43.2387 17.7464
rfingers 7.12502
rthumb -16.0882 -11.6058
lclavicle -4.29375e-014 -2.78299e-014
lhumerus -4.24662 -40.3575 90.2618
lradius 94.5292
lwrist -12.6104
lhand -44.6246 17.4927
lfingers 7.12502
lthumb -17.4224 46.7319
rfemur -92.8774 -22.0817 31.3822
rtibia 61.8566
rfoot -19.3736 -3.2098
rtoes -6.00102
lfemur -93.3209 -3.30945 -30.834
ltibia 48.5947
lfoot -4.02365 -23.0772
ltoes 7.47448
285
root 1.57727 16.2831 -1.9859 55.5579 11.5433 5.34607
lowerback 34.398 4.126 2.44674
upperback 22.4613 5.9325 14.3571
thorax 5.75318 1.96048 12.6763
lowerneck -24.7779 -12.2246 -25.1335
upperneck 4.51046 -7.99974 -3.16362
head 5.91525 -4.69162 1.51542
rclavicle 8.74653e-014 4.37326e-014
rhumerus 74.0443 -11.701 -56.761
rradius 19.9915
rwrist 1.31153
rhand -42.9812 16.9113
rfingers 7.12502
rthumb -15.8403 -12.4607
lclavicle 8.74653e-014 4.37326e-014
lhumerus -3.96437 -40.3699 90.1914
lradius 94.4235
lwrist -11.6688
lhand -43.8662 17.0658
lfingers 7.12502
lthumb -16.6924 46.3681
rfemur -92.4469 -21.9873 31.1053
rtibia 61.6637
rfoot -19.3284 -3.28555
rtoes -5.71797
lfemur -92.9521 -3.22444 -30.8547
ltibia 48.3702
lfoot -4.12233 -22.9845
ltoes 6.54507
